<svg viewBox="-16 -32 880 192" width="880" height="192" xmlns="http://www.w3.org/2000/svg"><desc>Generated with https://github.com/Platane/snk</desc><style>@keyframes c0{1.65%{fill:var(--c1)}1.67%,to{fill:var(--ce)}}@keyframes c1{2.48%{fill:var(--c1)}2.5%,to{fill:var(--ce)}}@keyframes c2{61.4%{fill:var(--c3)}61.42%,to{fill:var(--ce)}}@keyframes c3{60.99%{fill:var(--c3)}61.01%,to{fill:var(--ce)}}@keyframes c4{10.78%{fill:var(--c1)}10.8%,to{fill:var(--ce)}}@keyframes c5{14.51%{fill:var(--c1)}14.53%,to{fill:var(--ce)}}@keyframes c6{18.25%{fill:var(--c1)}18.27%,to{fill:var(--ce)}}@keyframes c7{39.82%{fill:var(--c2)}39.84%,to{fill:var(--ce)}}@keyframes c8{39.41%{fill:var(--c2)}39.43%,to{fill:var(--ce)}}@keyframes c9{45.63%{fill:var(--c3)}45.65%,to{fill:var(--ce)}}@keyframes ca{29.45%{fill:var(--c1)}29.47%,to{fill:var(--ce)}}@keyframes cb{78%{fill:var(--c4)}78.02%,to{fill:var(--ce)}}@keyframes cc{41.07%{fill:var(--c2)}41.09%,to{fill:var(--ce)}}@keyframes cd{26.55%{fill:var(--c1)}26.57%,to{fill:var(--ce)}}@keyframes ce{37.75%{fill:var(--c1)}37.77%,to{fill:var(--ce)}}@keyframes cf{38.99%{fill:var(--c2)}39.01%,to{fill:var(--ce)}}@keyframes cg{45.22%{fill:var(--c2)}45.24%,to{fill:var(--ce)}}@keyframes ch{29.04%{fill:var(--c1)}29.06%,to{fill:var(--ce)}}@keyframes ci{41.9%{fill:var(--c2)}41.92%,to{fill:var(--ce)}}@keyframes cj{27.38%{fill:var(--c1)}27.4%,to{fill:var(--ce)}}@keyframes ck{26.96%{fill:var(--c1)}26.98%,to{fill:var(--ce)}}@keyframes cl{38.16%{fill:var(--c2)}38.18%,to{fill:var(--ce)}}@keyframes cm{38.58%{fill:var(--c2)}38.6%,to{fill:var(--ce)}}@keyframes cn{34.01%{fill:var(--c1)}34.03%,to{fill:var(--ce)}}@keyframes co{28.62%{fill:var(--c1)}28.64%,to{fill:var(--ce)}}@keyframes cp{28.21%{fill:var(--c1)}28.23%,to{fill:var(--ce)}}@keyframes u0{1.65%{transform:scale(0,1)}1.67%,2.48%{transform:scale(.07,1)}10.78%,2.5%{transform:scale(.14,1)}10.8%,14.51%{transform:scale(.21,1)}14.53%,18.25%{transform:scale(.29,1)}18.27%,26.55%{transform:scale(.36,1)}26.57%,26.96%{transform:scale(.43,1)}26.98%,27.38%{transform:scale(.5,1)}27.4%,28.21%{transform:scale(.57,1)}28.23%,28.62%{transform:scale(.64,1)}28.64%,29.04%{transform:scale(.71,1)}29.06%,29.45%{transform:scale(.79,1)}29.47%,34.01%{transform:scale(.86,1)}34.03%,37.75%{transform:scale(.93,1)}37.77%,to{transform:scale(1,1)}}@keyframes u1{38.16%{transform:scale(0,1)}38.18%,38.58%{transform:scale(.13,1)}38.6%,38.99%{transform:scale(.25,1)}39.01%,39.41%{transform:scale(.38,1)}39.43%,39.82%{transform:scale(.5,1)}39.84%,41.07%{transform:scale(.63,1)}41.09%,41.9%{transform:scale(.75,1)}41.92%,45.22%{transform:scale(.88,1)}45.24%,to{transform:scale(1,1)}}@keyframes u2{45.63%{transform:scale(0,1)}45.65%,60.99%{transform:scale(.33,1)}61.01%,61.4%{transform:scale(.67,1)}61.42%,to{transform:scale(1,1)}}@keyframes u3{78%{transform:scale(0,1)}78.02%,to{transform:scale(1,1)}}@keyframes s0{0%,99.59%{transform:translate(0,-16px)}.41%{transform:translate(0,0)}.83%{transform:translate(16px,0)}2.49%{transform:translate(16px,64px)}7.05%{transform:translate(192px,64px)}7.88%{transform:translate(192px,96px)}12.45%{transform:translate(368px,96px)}14.52%{transform:translate(368px,16px)}17.43%{transform:translate(480px,16px)}18.26%{transform:translate(480px,48px)}26.97%{transform:translate(816px,48px)}27.39%,41.49%{transform:translate(816px,32px)}27.8%,42.74%{transform:translate(832px,32px)}28.63%{transform:translate(832px,0)}29.46%{transform:translate(800px,0)}29.88%{transform:translate(800px,-16px)}30.71%{transform:translate(832px,-16px)}33.61%{transform:translate(832px,96px)}34.02%{transform:translate(816px,96px)}34.44%{transform:translate(816px,112px)}34.85%{transform:translate(832px,112px)}36.51%{transform:translate(832px,48px)}37.34%{transform:translate(800px,48px)}37.76%,40.25%,76.76%{transform:translate(800px,64px)}38.17%{transform:translate(816px,64px)}38.59%{transform:translate(816px,80px)}39.42%,46.06%{transform:translate(784px,80px)}39.83%{transform:translate(784px,64px)}41.08%,43.57%{transform:translate(800px,32px)}41.91%{transform:translate(816px,16px)}42.32%{transform:translate(832px,16px)}45.23%{transform:translate(800px,96px)}45.64%{transform:translate(784px,96px)}61%{transform:translate(208px,80px)}61.41%{transform:translate(208px,64px)}78.01%{transform:translate(800px,16px)}96.68%{transform:translate(80px,16px)}97.51%{transform:translate(80px,-16px)}}@keyframes s1{0%,99.59%{transform:translate(16px,-16px)}.41%{transform:translate(0,-16px)}.83%{transform:translate(0,0)}1.24%{transform:translate(16px,0)}2.9%{transform:translate(16px,64px)}7.47%{transform:translate(192px,64px)}8.3%{transform:translate(192px,96px)}12.86%{transform:translate(368px,96px)}14.94%{transform:translate(368px,16px)}17.84%{transform:translate(480px,16px)}18.67%{transform:translate(480px,48px)}27.39%{transform:translate(816px,48px)}27.8%,41.91%{transform:translate(816px,32px)}28.22%,43.15%{transform:translate(832px,32px)}29.05%{transform:translate(832px,0)}29.88%{transform:translate(800px,0)}30.29%{transform:translate(800px,-16px)}31.12%{transform:translate(832px,-16px)}34.02%{transform:translate(832px,96px)}34.44%{transform:translate(816px,96px)}34.85%{transform:translate(816px,112px)}35.27%{transform:translate(832px,112px)}36.93%{transform:translate(832px,48px)}37.76%{transform:translate(800px,48px)}38.17%,40.66%,77.18%{transform:translate(800px,64px)}38.59%{transform:translate(816px,64px)}39%{transform:translate(816px,80px)}39.83%,46.47%{transform:translate(784px,80px)}40.25%{transform:translate(784px,64px)}41.49%,43.98%{transform:translate(800px,32px)}42.32%{transform:translate(816px,16px)}42.74%{transform:translate(832px,16px)}45.64%{transform:translate(800px,96px)}46.06%{transform:translate(784px,96px)}61.41%{transform:translate(208px,80px)}61.83%{transform:translate(208px,64px)}78.42%{transform:translate(800px,16px)}97.1%{transform:translate(80px,16px)}97.93%{transform:translate(80px,-16px)}}@keyframes s2{0%,99.59%{transform:translate(32px,-16px)}.83%{transform:translate(0,-16px)}1.24%{transform:translate(0,0)}1.66%{transform:translate(16px,0)}3.32%{transform:translate(16px,64px)}7.88%{transform:translate(192px,64px)}8.71%{transform:translate(192px,96px)}13.28%{transform:translate(368px,96px)}15.35%{transform:translate(368px,16px)}18.26%{transform:translate(480px,16px)}19.09%{transform:translate(480px,48px)}27.8%{transform:translate(816px,48px)}28.22%,42.32%{transform:translate(816px,32px)}28.63%,43.57%{transform:translate(832px,32px)}29.46%{transform:translate(832px,0)}30.29%{transform:translate(800px,0)}30.71%{transform:translate(800px,-16px)}31.54%{transform:translate(832px,-16px)}34.44%{transform:translate(832px,96px)}34.85%{transform:translate(816px,96px)}35.27%{transform:translate(816px,112px)}35.68%{transform:translate(832px,112px)}37.34%{transform:translate(832px,48px)}38.17%{transform:translate(800px,48px)}38.59%,41.08%,77.59%{transform:translate(800px,64px)}39%{transform:translate(816px,64px)}39.42%{transform:translate(816px,80px)}40.25%,46.89%{transform:translate(784px,80px)}40.66%{transform:translate(784px,64px)}41.91%,44.4%{transform:translate(800px,32px)}42.74%{transform:translate(816px,16px)}43.15%{transform:translate(832px,16px)}46.06%{transform:translate(800px,96px)}46.47%{transform:translate(784px,96px)}61.83%{transform:translate(208px,80px)}62.24%{transform:translate(208px,64px)}78.84%{transform:translate(800px,16px)}97.51%{transform:translate(80px,16px)}98.34%{transform:translate(80px,-16px)}}@keyframes s3{0%,99.59%{transform:translate(48px,-16px)}1.24%{transform:translate(0,-16px)}1.66%{transform:translate(0,0)}2.07%{transform:translate(16px,0)}3.73%{transform:translate(16px,64px)}8.3%{transform:translate(192px,64px)}9.13%{transform:translate(192px,96px)}13.69%{transform:translate(368px,96px)}15.77%{transform:translate(368px,16px)}18.67%{transform:translate(480px,16px)}19.5%{transform:translate(480px,48px)}28.22%{transform:translate(816px,48px)}28.63%,42.74%{transform:translate(816px,32px)}29.05%,43.98%{transform:translate(832px,32px)}29.88%{transform:translate(832px,0)}30.71%{transform:translate(800px,0)}31.12%{transform:translate(800px,-16px)}31.95%{transform:translate(832px,-16px)}34.85%{transform:translate(832px,96px)}35.27%{transform:translate(816px,96px)}35.68%{transform:translate(816px,112px)}36.1%{transform:translate(832px,112px)}37.76%{transform:translate(832px,48px)}38.59%{transform:translate(800px,48px)}39%,41.49%,78.01%{transform:translate(800px,64px)}39.42%{transform:translate(816px,64px)}39.83%{transform:translate(816px,80px)}40.66%,47.3%{transform:translate(784px,80px)}41.08%{transform:translate(784px,64px)}42.32%,44.81%{transform:translate(800px,32px)}43.15%{transform:translate(816px,16px)}43.57%{transform:translate(832px,16px)}46.47%{transform:translate(800px,96px)}46.89%{transform:translate(784px,96px)}62.24%{transform:translate(208px,80px)}62.66%{transform:translate(208px,64px)}79.25%{transform:translate(800px,16px)}97.93%{transform:translate(80px,16px)}98.76%{transform:translate(80px,-16px)}}:root{--cb:#1b1f230a;--cs:purple;--ce:#ebedf0;--c0:#ebedf0;--c1:#9be9a8;--c2:#40c463;--c3:#30a14e;--c4:#216e39}@media (prefers-color-scheme:dark){:root{--cb:#1b1f230a;--cs:purple;--ce:#161b22;--c1:#01311f;--c2:#034525;--c3:#0f6d31;--c4:#00c647}}.c{shape-rendering:geometricPrecision;fill:var(--ce);stroke-width:1px;stroke:var(--cb);animation:none 24100ms linear infinite}.c.c0,.c.c1{fill:var(--c1);animation-name:c0}.c.c1{animation-name:c1}.c.c2,.c.c3{fill:var(--c3);animation-name:c2}.c.c3{animation-name:c3}.c.c4,.c.c5,.c.c6{fill:var(--c1);animation-name:c4}.c.c5,.c.c6{animation-name:c5}.c.c6{animation-name:c6}.c.c7,.c.c8{fill:var(--c2);animation-name:c7}.c.c8{animation-name:c8}.c.c9{fill:var(--c3);animation-name:c9}.c.ca{fill:var(--c1);animation-name:ca}.c.cb{fill:var(--c4);animation-name:cb}.c.cc{fill:var(--c2);animation-name:cc}.c.cd,.c.ce{fill:var(--c1);animation-name:cd}.c.ce{animation-name:ce}.c.cf,.c.cg{fill:var(--c2);animation-name:cf}.c.cg{animation-name:cg}.c.ch{fill:var(--c1);animation-name:ch}.c.ci{fill:var(--c2);animation-name:ci}.c.cj,.c.ck{fill:var(--c1);animation-name:cj}.c.ck{animation-name:ck}.c.cl,.c.cm{fill:var(--c2);animation-name:cl}.c.cm{animation-name:cm}.c.cn,.c.co,.c.cp{fill:var(--c1);animation-name:cn}.c.co,.c.cp{animation-name:co}.c.cp{animation-name:cp}.s,.u{animation:none linear 24100ms infinite}.u,.u.u0{transform-origin:0 0}.u{transform:scale(0,1)}.u.u0{fill:var(--c1);animation-name:u0}.u.u1{fill:var(--c2);animation-name:u1;transform-origin:456.6px 0}.u.u2{fill:var(--c3);animation-name:u2;transform-origin:717.5px 0}.u.u3{fill:var(--c4);animation-name:u3;transform-origin:815.4px 0}.s{shape-rendering:geometricPrecision;fill:var(--cs)}.s.s0{transform:translate(0,-16px);animation-name:s0}.s.s1{transform:translate(16px,-16px);animation-name:s1}.s.s2{transform:translate(32px,-16px);animation-name:s2}.s.s3{transform:translate(48px,-16px);animation-name:s3}</style><rect class="c" x="2" y="2" rx="2" ry="2" width="12" height="12"/><rect class="c" x="2" y="18" rx="2" ry="2" width="12" height="12"/><rect class="c" x="2" y="34" rx="2" ry="2" width="12" height="12"/><rect class="c" x="2" y="50" rx="2" ry="2" width="12" height="12"/><rect class="c" x="2" y="66" rx="2" ry="2" width="12" height="12"/><rect class="c" x="2" y="82" rx="2" ry="2" width="12" height="12"/><rect class="c" x="2" y="98" rx="2" ry="2" width="12" height="12"/><rect class="c" x="18" y="2" rx="2" ry="2" width="12" height="12"/><rect class="c" x="18" y="18" rx="2" ry="2" width="12" height="12"/><rect class="c c0" x="18" y="34" rx="2" ry="2" width="12" height="12"/><rect class="c" x="18" y="50" rx="2" ry="2" width="12" height="12"/><rect class="c c1" x="18" y="66" rx="2" ry="2" width="12" height="12"/><rect class="c" x="18" y="82" rx="2" ry="2" width="12" height="12"/><rect class="c" x="18" y="98" rx="2" ry="2" width="12" height="12"/><rect class="c" x="34" y="2" rx="2" ry="2" width="12" height="12"/><rect class="c" x="34" y="18" rx="2" ry="2" width="12" height="12"/><rect class="c" x="34" y="34" rx="2" ry="2" width="12" height="12"/><rect class="c" x="34" y="50" rx="2" ry="2" width="12" height="12"/><rect class="c" x="34" y="66" rx="2" ry="2" width="12" height="12"/><rect class="c" x="34" y="82" rx="2" ry="2" width="12" height="12"/><rect class="c" x="34" y="98" rx="2" ry="2" width="12" height="12"/><rect class="c" x="50" y="2" rx="2" ry="2" width="12" height="12"/><rect class="c" x="50" y="18" rx="2" ry="2" width="12" height="12"/><rect class="c" x="50" y="34" rx="2" ry="2" width="12" height="12"/><rect class="c" x="50" y="50" rx="2" ry="2" width="12" height="12"/><rect class="c" x="50" y="66" rx="2" ry="2" width="12" height="12"/><rect class="c" x="50" y="82" rx="2" ry="2" width="12" height="12"/><rect class="c" x="50" y="98" rx="2" ry="2" width="12" height="12"/><rect class="c" x="66" y="2" rx="2" ry="2" width="12" height="12"/><rect class="c" x="66" y="18" rx="2" ry="2" width="12" height="12"/><rect class="c" x="66" y="34" rx="2" ry="2" width="12" height="12"/><rect class="c" x="66" y="50" rx="2" ry="2" width="12" height="12"/><rect class="c" x="66" y="66" rx="2" ry="2" width="12" height="12"/><rect class="c" x="66" y="82" rx="2" ry="2" width="12" height="12"/><rect class="c" x="66" y="98" rx="2" ry="2" width="12" height="12"/><rect class="c" x="82" y="2" rx="2" ry="2" width="12" height="12"/><rect class="c" x="82" y="18" rx="2" ry="2" width="12" height="12"/><rect class="c" x="82" y="34" rx="2" ry="2" width="12" height="12"/><rect class="c" x="82" y="50" rx="2" ry="2" width="12" height="12"/><rect class="c" x="82" y="66" rx="2" ry="2" width="12" height="12"/><rect class="c" x="82" y="82" rx="2" ry="2" width="12" height="12"/><rect class="c" x="82" y="98" rx="2" ry="2" width="12" height="12"/><rect class="c" x="98" y="2" rx="2" ry="2" width="12" height="12"/><rect class="c" x="98" y="18" rx="2" ry="2" width="12" height="12"/><rect class="c" x="98" y="34" rx="2" ry="2" width="12" height="12"/><rect class="c" x="98" y="50" rx="2" ry="2" width="12" height="12"/><rect class="c" x="98" y="66" rx="2" ry="2" width="12" height="12"/><rect class="c" x="98" y="82" rx="2" ry="2" width="12" height="12"/><rect class="c" x="98" y="98" rx="2" ry="2" width="12" height="12"/><rect class="c" x="114" y="2" rx="2" ry="2" width="12" height="12"/><rect class="c" x="114" y="18" rx="2" ry="2" width="12" height="12"/><rect class="c" x="114" y="34" rx="2" ry="2" width="12" height="12"/><rect class="c" x="114" y="50" rx="2" ry="2" width="12" height="12"/><rect class="c" x="114" y="66" rx="2" ry="2" width="12" height="12"/><rect class="c" x="114" y="82" rx="2" ry="2" width="12" height="12"/><rect class="c" x="114" y="98" rx="2" ry="2" width="12" height="12"/><rect class="c" x="130" y="2" rx="2" ry="2" width="12" height="12"/><rect class="c" x="130" y="18" rx="2" ry="2" width="12" height="12"/><rect class="c" x="130" y="34" rx="2" ry="2" width="12" height="12"/><rect class="c" x="130" y="50" rx="2" ry="2" width="12" height="12"/><rect class="c" x="130" y="66" rx="2" ry="2" width="12" height="12"/><rect class="c" x="130" y="82" rx="2" ry="2" width="12" height="12"/><rect class="c" x="130" y="98" rx="2" ry="2" width="12" height="12"/><rect class="c" x="146" y="2" rx="2" ry="2" width="12" height="12"/><rect class="c" x="146" y="18" rx="2" ry="2" width="12" height="12"/><rect class="c" x="146" y="34" rx="2" ry="2" width="12" height="12"/><rect class="c" x="146" y="50" rx="2" ry="2" width="12" height="12"/><rect class="c" x="146" y="66" rx="2" ry="2" width="12" height="12"/><rect class="c" x="146" y="82" rx="2" ry="2" width="12" height="12"/><rect class="c" x="146" y="98" rx="2" ry="2" width="12" height="12"/><rect class="c" x="162" y="2" rx="2" ry="2" width="12" height="12"/><rect class="c" x="162" y="18" rx="2" ry="2" width="12" height="12"/><rect class="c" x="162" y="34" rx="2" ry="2" width="12" height="12"/><rect class="c" x="162" y="50" rx="2" ry="2" width="12" height="12"/><rect class="c" x="162" y="66" rx="2" ry="2" width="12" height="12"/><rect class="c" x="162" y="82" rx="2" ry="2" width="12" height="12"/><rect class="c" x="162" y="98" rx="2" ry="2" width="12" height="12"/><rect class="c" x="178" y="2" rx="2" ry="2" width="12" height="12"/><rect class="c" x="178" y="18" rx="2" ry="2" width="12" height="12"/><rect class="c" x="178" y="34" rx="2" ry="2" width="12" height="12"/><rect class="c" x="178" y="50" rx="2" ry="2" width="12" height="12"/><rect class="c" x="178" y="66" rx="2" ry="2" width="12" height="12"/><rect class="c" x="178" y="82" rx="2" ry="2" width="12" height="12"/><rect class="c" x="178" y="98" rx="2" ry="2" width="12" height="12"/><rect class="c" x="194" y="2" rx="2" ry="2" width="12" height="12"/><rect class="c" x="194" y="18" rx="2" ry="2" width="12" height="12"/><rect class="c" x="194" y="34" rx="2" ry="2" width="12" height="12"/><rect class="c" x="194" y="50" rx="2" ry="2" width="12" height="12"/><rect class="c" x="194" y="66" rx="2" ry="2" width="12" height="12"/><rect class="c" x="194" y="82" rx="2" ry="2" width="12" height="12"/><rect class="c" x="194" y="98" rx="2" ry="2" width="12" height="12"/><rect class="c" x="210" y="2" rx="2" ry="2" width="12" height="12"/><rect class="c" x="210" y="18" rx="2" ry="2" width="12" height="12"/><rect class="c" x="210" y="34" rx="2" ry="2" width="12" height="12"/><rect class="c" x="210" y="50" rx="2" ry="2" width="12" height="12"/><rect class="c c2" x="210" y="66" rx="2" ry="2" width="12" height="12"/><rect class="c c3" x="210" y="82" rx="2" ry="2" width="12" height="12"/><rect class="c" x="210" y="98" rx="2" ry="2" width="12" height="12"/><rect class="c" x="226" y="2" rx="2" ry="2" width="12" height="12"/><rect class="c" x="226" y="18" rx="2" ry="2" width="12" height="12"/><rect class="c" x="226" y="34" rx="2" ry="2" width="12" height="12"/><rect class="c" x="226" y="50" rx="2" ry="2" width="12" height="12"/><rect class="c" x="226" y="66" rx="2" ry="2" width="12" height="12"/><rect class="c" x="226" y="82" rx="2" ry="2" width="12" height="12"/><rect class="c" x="226" y="98" rx="2" ry="2" width="12" height="12"/><rect class="c" x="242" y="2" rx="2" ry="2" width="12" height="12"/><rect class="c" x="242" y="18" rx="2" ry="2" width="12" height="12"/><rect class="c" x="242" y="34" rx="2" ry="2" width="12" height="12"/><rect class="c" x="242" y="50" rx="2" ry="2" width="12" height="12"/><rect class="c" x="242" y="66" rx="2" ry="2" width="12" height="12"/><rect class="c" x="242" y="82" rx="2" ry="2" width="12" height="12"/><rect class="c" x="242" y="98" rx="2" ry="2" width="12" height="12"/><rect class="c" x="258" y="2" rx="2" ry="2" width="12" height="12"/><rect class="c" x="258" y="18" rx="2" ry="2" width="12" height="12"/><rect class="c" x="258" y="34" rx="2" ry="2" width="12" height="12"/><rect class="c" x="258" y="50" rx="2" ry="2" width="12" height="12"/><rect class="c" x="258" y="66" rx="2" ry="2" width="12" height="12"/><rect class="c" x="258" y="82" rx="2" ry="2" width="12" height="12"/><rect class="c" x="258" y="98" rx="2" ry="2" width="12" height="12"/><rect class="c" x="274" y="2" rx="2" ry="2" width="12" height="12"/><rect class="c" x="274" y="18" rx="2" ry="2" width="12" height="12"/><rect class="c" x="274" y="34" rx="2" ry="2" width="12" height="12"/><rect class="c" x="274" y="50" rx="2" ry="2" width="12" height="12"/><rect class="c" x="274" y="66" rx="2" ry="2" width="12" height="12"/><rect class="c" x="274" y="82" rx="2" ry="2" width="12" height="12"/><rect class="c" x="274" y="98" rx="2" ry="2" width="12" height="12"/><rect class="c" x="290" y="2" rx="2" ry="2" width="12" height="12"/><rect class="c" x="290" y="18" rx="2" ry="2" width="12" height="12"/><rect class="c" x="290" y="34" rx="2" ry="2" width="12" height="12"/><rect class="c" x="290" y="50" rx="2" ry="2" width="12" height="12"/><rect class="c" x="290" y="66" rx="2" ry="2" width="12" height="12"/><rect class="c" x="290" y="82" rx="2" ry="2" width="12" height="12"/><rect class="c" x="290" y="98" rx="2" ry="2" width="12" height="12"/><rect class="c" x="306" y="2" rx="2" ry="2" width="12" height="12"/><rect class="c" x="306" y="18" rx="2" ry="2" width="12" height="12"/><rect class="c" x="306" y="34" rx="2" ry="2" width="12" height="12"/><rect class="c" x="306" y="50" rx="2" ry="2" width="12" height="12"/><rect class="c" x="306" y="66" rx="2" ry="2" width="12" height="12"/><rect class="c" x="306" y="82" rx="2" ry="2" width="12" height="12"/><rect class="c c4" x="306" y="98" rx="2" ry="2" width="12" height="12"/><rect class="c" x="322" y="2" rx="2" ry="2" width="12" height="12"/><rect class="c" x="322" y="18" rx="2" ry="2" width="12" height="12"/><rect class="c" x="322" y="34" rx="2" ry="2" width="12" height="12"/><rect class="c" x="322" y="50" rx="2" ry="2" width="12" height="12"/><rect class="c" x="322" y="66" rx="2" ry="2" width="12" height="12"/><rect class="c" x="322" y="82" rx="2" ry="2" width="12" height="12"/><rect class="c" x="322" y="98" rx="2" ry="2" width="12" height="12"/><rect class="c" x="338" y="2" rx="2" ry="2" width="12" height="12"/><rect class="c" x="338" y="18" rx="2" ry="2" width="12" height="12"/><rect class="c" x="338" y="34" rx="2" ry="2" width="12" height="12"/><rect class="c" x="338" y="50" rx="2" ry="2" width="12" height="12"/><rect class="c" x="338" y="66" rx="2" ry="2" width="12" height="12"/><rect class="c" x="338" y="82" rx="2" ry="2" width="12" height="12"/><rect class="c" x="338" y="98" rx="2" ry="2" width="12" height="12"/><rect class="c" x="354" y="2" rx="2" ry="2" width="12" height="12"/><rect class="c" x="354" y="18" rx="2" ry="2" width="12" height="12"/><rect class="c" x="354" y="34" rx="2" ry="2" width="12" height="12"/><rect class="c" x="354" y="50" rx="2" ry="2" width="12" height="12"/><rect class="c" x="354" y="66" rx="2" ry="2" width="12" height="12"/><rect class="c" x="354" y="82" rx="2" ry="2" width="12" height="12"/><rect class="c" x="354" y="98" rx="2" ry="2" width="12" height="12"/><rect class="c" x="370" y="2" rx="2" ry="2" width="12" height="12"/><rect class="c c5" x="370" y="18" rx="2" ry="2" width="12" height="12"/><rect class="c" x="370" y="34" rx="2" ry="2" width="12" height="12"/><rect class="c" x="370" y="50" rx="2" ry="2" width="12" height="12"/><rect class="c" x="370" y="66" rx="2" ry="2" width="12" height="12"/><rect class="c" x="370" y="82" rx="2" ry="2" width="12" height="12"/><rect class="c" x="370" y="98" rx="2" ry="2" width="12" height="12"/><rect class="c" x="386" y="2" rx="2" ry="2" width="12" height="12"/><rect class="c" x="386" y="18" rx="2" ry="2" width="12" height="12"/><rect class="c" x="386" y="34" rx="2" ry="2" width="12" height="12"/><rect class="c" x="386" y="50" rx="2" ry="2" width="12" height="12"/><rect class="c" x="386" y="66" rx="2" ry="2" width="12" height="12"/><rect class="c" x="386" y="82" rx="2" ry="2" width="12" height="12"/><rect class="c" x="386" y="98" rx="2" ry="2" width="12" height="12"/><rect class="c" x="402" y="2" rx="2" ry="2" width="12" height="12"/><rect class="c" x="402" y="18" rx="2" ry="2" width="12" height="12"/><rect class="c" x="402" y="34" rx="2" ry="2" width="12" height="12"/><rect class="c" x="402" y="50" rx="2" ry="2" width="12" height="12"/><rect class="c" x="402" y="66" rx="2" ry="2" width="12" height="12"/><rect class="c" x="402" y="82" rx="2" ry="2" width="12" height="12"/><rect class="c" x="402" y="98" rx="2" ry="2" width="12" height="12"/><rect class="c" x="418" y="2" rx="2" ry="2" width="12" height="12"/><rect class="c" x="418" y="18" rx="2" ry="2" width="12" height="12"/><rect class="c" x="418" y="34" rx="2" ry="2" width="12" height="12"/><rect class="c" x="418" y="50" rx="2" ry="2" width="12" height="12"/><rect class="c" x="418" y="66" rx="2" ry="2" width="12" height="12"/><rect class="c" x="418" y="82" rx="2" ry="2" width="12" height="12"/><rect class="c" x="418" y="98" rx="2" ry="2" width="12" height="12"/><rect class="c" x="434" y="2" rx="2" ry="2" width="12" height="12"/><rect class="c" x="434" y="18" rx="2" ry="2" width="12" height="12"/><rect class="c" x="434" y="34" rx="2" ry="2" width="12" height="12"/><rect class="c" x="434" y="50" rx="2" ry="2" width="12" height="12"/><rect class="c" x="434" y="66" rx="2" ry="2" width="12" height="12"/><rect class="c" x="434" y="82" rx="2" ry="2" width="12" height="12"/><rect class="c" x="434" y="98" rx="2" ry="2" width="12" height="12"/><rect class="c" x="450" y="2" rx="2" ry="2" width="12" height="12"/><rect class="c" x="450" y="18" rx="2" ry="2" width="12" height="12"/><rect class="c" x="450" y="34" rx="2" ry="2" width="12" height="12"/><rect class="c" x="450" y="50" rx="2" ry="2" width="12" height="12"/><rect class="c" x="450" y="66" rx="2" ry="2" width="12" height="12"/><rect class="c" x="450" y="82" rx="2" ry="2" width="12" height="12"/><rect class="c" x="450" y="98" rx="2" ry="2" width="12" height="12"/><rect class="c" x="466" y="2" rx="2" ry="2" width="12" height="12"/><rect class="c" x="466" y="18" rx="2" ry="2" width="12" height="12"/><rect class="c" x="466" y="34" rx="2" ry="2" width="12" height="12"/><rect class="c" x="466" y="50" rx="2" ry="2" width="12" height="12"/><rect class="c" x="466" y="66" rx="2" ry="2" width="12" height="12"/><rect class="c" x="466" y="82" rx="2" ry="2" width="12" height="12"/><rect class="c" x="466" y="98" rx="2" ry="2" width="12" height="12"/><rect class="c" x="482" y="2" rx="2" ry="2" width="12" height="12"/><rect class="c" x="482" y="18" rx="2" ry="2" width="12" height="12"/><rect class="c" x="482" y="34" rx="2" ry="2" width="12" height="12"/><rect class="c c6" x="482" y="50" rx="2" ry="2" width="12" height="12"/><rect class="c" x="482" y="66" rx="2" ry="2" width="12" height="12"/><rect class="c" x="482" y="82" rx="2" ry="2" width="12" height="12"/><rect class="c" x="482" y="98" rx="2" ry="2" width="12" height="12"/><rect class="c" x="498" y="2" rx="2" ry="2" width="12" height="12"/><rect class="c" x="498" y="18" rx="2" ry="2" width="12" height="12"/><rect class="c" x="498" y="34" rx="2" ry="2" width="12" height="12"/><rect class="c" x="498" y="50" rx="2" ry="2" width="12" height="12"/><rect class="c" x="498" y="66" rx="2" ry="2" width="12" height="12"/><rect class="c" x="498" y="82" rx="2" ry="2" width="12" height="12"/><rect class="c" x="498" y="98" rx="2" ry="2" width="12" height="12"/><rect class="c" x="514" y="2" rx="2" ry="2" width="12" height="12"/><rect class="c" x="514" y="18" rx="2" ry="2" width="12" height="12"/><rect class="c" x="514" y="34" rx="2" ry="2" width="12" height="12"/><rect class="c" x="514" y="50" rx="2" ry="2" width="12" height="12"/><rect class="c" x="514" y="66" rx="2" ry="2" width="12" height="12"/><rect class="c" x="514" y="82" rx="2" ry="2" width="12" height="12"/><rect class="c" x="514" y="98" rx="2" ry="2" width="12" height="12"/><rect class="c" x="530" y="2" rx="2" ry="2" width="12" height="12"/><rect class="c" x="530" y="18" rx="2" ry="2" width="12" height="12"/><rect class="c" x="530" y="34" rx="2" ry="2" width="12" height="12"/><rect class="c" x="530" y="50" rx="2" ry="2" width="12" height="12"/><rect class="c" x="530" y="66" rx="2" ry="2" width="12" height="12"/><rect class="c" x="530" y="82" rx="2" ry="2" width="12" height="12"/><rect class="c" x="530" y="98" rx="2" ry="2" width="12" height="12"/><rect class="c" x="546" y="2" rx="2" ry="2" width="12" height="12"/><rect class="c" x="546" y="18" rx="2" ry="2" width="12" height="12"/><rect class="c" x="546" y="34" rx="2" ry="2" width="12" height="12"/><rect class="c" x="546" y="50" rx="2" ry="2" width="12" height="12"/><rect class="c" x="546" y="66" rx="2" ry="2" width="12" height="12"/><rect class="c" x="546" y="82" rx="2" ry="2" width="12" height="12"/><rect class="c" x="546" y="98" rx="2" ry="2" width="12" height="12"/><rect class="c" x="562" y="2" rx="2" ry="2" width="12" height="12"/><rect class="c" x="562" y="18" rx="2" ry="2" width="12" height="12"/><rect class="c" x="562" y="34" rx="2" ry="2" width="12" height="12"/><rect class="c" x="562" y="50" rx="2" ry="2" width="12" height="12"/><rect class="c" x="562" y="66" rx="2" ry="2" width="12" height="12"/><rect class="c" x="562" y="82" rx="2" ry="2" width="12" height="12"/><rect class="c" x="562" y="98" rx="2" ry="2" width="12" height="12"/><rect class="c" x="578" y="2" rx="2" ry="2" width="12" height="12"/><rect class="c" x="578" y="18" rx="2" ry="2" width="12" height="12"/><rect class="c" x="578" y="34" rx="2" ry="2" width="12" height="12"/><rect class="c" x="578" y="50" rx="2" ry="2" width="12" height="12"/><rect class="c" x="578" y="66" rx="2" ry="2" width="12" height="12"/><rect class="c" x="578" y="82" rx="2" ry="2" width="12" height="12"/><rect class="c" x="578" y="98" rx="2" ry="2" width="12" height="12"/><rect class="c" x="594" y="2" rx="2" ry="2" width="12" height="12"/><rect class="c" x="594" y="18" rx="2" ry="2" width="12" height="12"/><rect class="c" x="594" y="34" rx="2" ry="2" width="12" height="12"/><rect class="c" x="594" y="50" rx="2" ry="2" width="12" height="12"/><rect class="c" x="594" y="66" rx="2" ry="2" width="12" height="12"/><rect class="c" x="594" y="82" rx="2" ry="2" width="12" height="12"/><rect class="c" x="594" y="98" rx="2" ry="2" width="12" height="12"/><rect class="c" x="610" y="2" rx="2" ry="2" width="12" height="12"/><rect class="c" x="610" y="18" rx="2" ry="2" width="12" height="12"/><rect class="c" x="610" y="34" rx="2" ry="2" width="12" height="12"/><rect class="c" x="610" y="50" rx="2" ry="2" width="12" height="12"/><rect class="c" x="610" y="66" rx="2" ry="2" width="12" height="12"/><rect class="c" x="610" y="82" rx="2" ry="2" width="12" height="12"/><rect class="c" x="610" y="98" rx="2" ry="2" width="12" height="12"/><rect class="c" x="626" y="2" rx="2" ry="2" width="12" height="12"/><rect class="c" x="626" y="18" rx="2" ry="2" width="12" height="12"/><rect class="c" x="626" y="34" rx="2" ry="2" width="12" height="12"/><rect class="c" x="626" y="50" rx="2" ry="2" width="12" height="12"/><rect class="c" x="626" y="66" rx="2" ry="2" width="12" height="12"/><rect class="c" x="626" y="82" rx="2" ry="2" width="12" height="12"/><rect class="c" x="626" y="98" rx="2" ry="2" width="12" height="12"/><rect class="c" x="642" y="2" rx="2" ry="2" width="12" height="12"/><rect class="c" x="642" y="18" rx="2" ry="2" width="12" height="12"/><rect class="c" x="642" y="34" rx="2" ry="2" width="12" height="12"/><rect class="c" x="642" y="50" rx="2" ry="2" width="12" height="12"/><rect class="c" x="642" y="66" rx="2" ry="2" width="12" height="12"/><rect class="c" x="642" y="82" rx="2" ry="2" width="12" height="12"/><rect class="c" x="642" y="98" rx="2" ry="2" width="12" height="12"/><rect class="c" x="658" y="2" rx="2" ry="2" width="12" height="12"/><rect class="c" x="658" y="18" rx="2" ry="2" width="12" height="12"/><rect class="c" x="658" y="34" rx="2" ry="2" width="12" height="12"/><rect class="c" x="658" y="50" rx="2" ry="2" width="12" height="12"/><rect class="c" x="658" y="66" rx="2" ry="2" width="12" height="12"/><rect class="c" x="658" y="82" rx="2" ry="2" width="12" height="12"/><rect class="c" x="658" y="98" rx="2" ry="2" width="12" height="12"/><rect class="c" x="674" y="2" rx="2" ry="2" width="12" height="12"/><rect class="c" x="674" y="18" rx="2" ry="2" width="12" height="12"/><rect class="c" x="674" y="34" rx="2" ry="2" width="12" height="12"/><rect class="c" x="674" y="50" rx="2" ry="2" width="12" height="12"/><rect class="c" x="674" y="66" rx="2" ry="2" width="12" height="12"/><rect class="c" x="674" y="82" rx="2" ry="2" width="12" height="12"/><rect class="c" x="674" y="98" rx="2" ry="2" width="12" height="12"/><rect class="c" x="690" y="2" rx="2" ry="2" width="12" height="12"/><rect class="c" x="690" y="18" rx="2" ry="2" width="12" height="12"/><rect class="c" x="690" y="34" rx="2" ry="2" width="12" height="12"/><rect class="c" x="690" y="50" rx="2" ry="2" width="12" height="12"/><rect class="c" x="690" y="66" rx="2" ry="2" width="12" height="12"/><rect class="c" x="690" y="82" rx="2" ry="2" width="12" height="12"/><rect class="c" x="690" y="98" rx="2" ry="2" width="12" height="12"/><rect class="c" x="706" y="2" rx="2" ry="2" width="12" height="12"/><rect class="c" x="706" y="18" rx="2" ry="2" width="12" height="12"/><rect class="c" x="706" y="34" rx="2" ry="2" width="12" height="12"/><rect class="c" x="706" y="50" rx="2" ry="2" width="12" height="12"/><rect class="c" x="706" y="66" rx="2" ry="2" width="12" height="12"/><rect class="c" x="706" y="82" rx="2" ry="2" width="12" height="12"/><rect class="c" x="706" y="98" rx="2" ry="2" width="12" height="12"/><rect class="c" x="722" y="2" rx="2" ry="2" width="12" height="12"/><rect class="c" x="722" y="18" rx="2" ry="2" width="12" height="12"/><rect class="c" x="722" y="34" rx="2" ry="2" width="12" height="12"/><rect class="c" x="722" y="50" rx="2" ry="2" width="12" height="12"/><rect class="c" x="722" y="66" rx="2" ry="2" width="12" height="12"/><rect class="c" x="722" y="82" rx="2" ry="2" width="12" height="12"/><rect class="c" x="722" y="98" rx="2" ry="2" width="12" height="12"/><rect class="c" x="738" y="2" rx="2" ry="2" width="12" height="12"/><rect class="c" x="738" y="18" rx="2" ry="2" width="12" height="12"/><rect class="c" x="738" y="34" rx="2" ry="2" width="12" height="12"/><rect class="c" x="738" y="50" rx="2" ry="2" width="12" height="12"/><rect class="c" x="738" y="66" rx="2" ry="2" width="12" height="12"/><rect class="c" x="738" y="82" rx="2" ry="2" width="12" height="12"/><rect class="c" x="738" y="98" rx="2" ry="2" width="12" height="12"/><rect class="c" x="754" y="2" rx="2" ry="2" width="12" height="12"/><rect class="c" x="754" y="18" rx="2" ry="2" width="12" height="12"/><rect class="c" x="754" y="34" rx="2" ry="2" width="12" height="12"/><rect class="c" x="754" y="50" rx="2" ry="2" width="12" height="12"/><rect class="c" x="754" y="66" rx="2" ry="2" width="12" height="12"/><rect class="c" x="754" y="82" rx="2" ry="2" width="12" height="12"/><rect class="c" x="754" y="98" rx="2" ry="2" width="12" height="12"/><rect class="c" x="770" y="2" rx="2" ry="2" width="12" height="12"/><rect class="c" x="770" y="18" rx="2" ry="2" width="12" height="12"/><rect class="c" x="770" y="34" rx="2" ry="2" width="12" height="12"/><rect class="c" x="770" y="50" rx="2" ry="2" width="12" height="12"/><rect class="c" x="770" y="66" rx="2" ry="2" width="12" height="12"/><rect class="c" x="770" y="82" rx="2" ry="2" width="12" height="12"/><rect class="c" x="770" y="98" rx="2" ry="2" width="12" height="12"/><rect class="c" x="786" y="2" rx="2" ry="2" width="12" height="12"/><rect class="c" x="786" y="18" rx="2" ry="2" width="12" height="12"/><rect class="c" x="786" y="34" rx="2" ry="2" width="12" height="12"/><rect class="c" x="786" y="50" rx="2" ry="2" width="12" height="12"/><rect class="c c7" x="786" y="66" rx="2" ry="2" width="12" height="12"/><rect class="c c8" x="786" y="82" rx="2" ry="2" width="12" height="12"/><rect class="c c9" x="786" y="98" rx="2" ry="2" width="12" height="12"/><rect class="c ca" x="802" y="2" rx="2" ry="2" width="12" height="12"/><rect class="c cb" x="802" y="18" rx="2" ry="2" width="12" height="12"/><rect class="c cc" x="802" y="34" rx="2" ry="2" width="12" height="12"/><rect class="c cd" x="802" y="50" rx="2" ry="2" width="12" height="12"/><rect class="c ce" x="802" y="66" rx="2" ry="2" width="12" height="12"/><rect class="c cf" x="802" y="82" rx="2" ry="2" width="12" height="12"/><rect class="c cg" x="802" y="98" rx="2" ry="2" width="12" height="12"/><rect class="c ch" x="818" y="2" rx="2" ry="2" width="12" height="12"/><rect class="c ci" x="818" y="18" rx="2" ry="2" width="12" height="12"/><rect class="c cj" x="818" y="34" rx="2" ry="2" width="12" height="12"/><rect class="c ck" x="818" y="50" rx="2" ry="2" width="12" height="12"/><rect class="c cl" x="818" y="66" rx="2" ry="2" width="12" height="12"/><rect class="c cm" x="818" y="82" rx="2" ry="2" width="12" height="12"/><rect class="c cn" x="818" y="98" rx="2" ry="2" width="12" height="12"/><rect class="c co" x="834" y="2" rx="2" ry="2" width="12" height="12"/><rect class="c cp" x="834" y="18" rx="2" ry="2" width="12" height="12"/><rect class="u u0" height="12" width="457.2" x="0.0" y="144"/><rect class="u u1" height="12" width="261.5" x="456.6" y="144"/><rect class="u u2" height="12" width="98.4" x="717.5" y="144"/><rect class="u u3" height="12" width="33.2" x="815.4" y="144"/><rect class="s s0" x="0.8" y="0.8" width="14.4" height="14.4" rx="4.5" ry="4.5"/><rect class="s s1" x="1.8" y="1.8" width="12.3" height="12.3" rx="4.1" ry="4.1"/><rect class="s s2" x="2.6" y="2.6" width="10.8" height="10.8" rx="3.6" ry="3.6"/><rect class="s s3" x="3.0" y="3.0" width="9.9" height="9.9" rx="3.3" ry="3.3"/></svg>
